<?xml version="1.0" encoding="utf-8"?><svg viewBox="0 0 18 19" xmlns="http://www.w3.org/2000/svg" xmlns:xlink="http://www.w3.org/1999/xlink"><style>:root>svg{display:none}:root>svg:target{display:block}</style><svg viewBox="0 0 15 16" id="icon-basket" xmlns="http://www.w3.org/2000/svg"><path fill-rule="evenodd" clip-rule="evenodd" d="M5.92.885c-.55 0-1.025.31-1.247.76-.539.003-.959.027-1.334.168a2.554 2.554 0 0 0-1.124.827c-.29.375-.426.855-.613 1.517l-.036.13-.405 2.248a1.7 1.7 0 0 0-.383.349c-.71.875-.373 2.178.304 4.782.43 1.657.646 2.485 1.287 2.967.642.483 1.53.483 3.303.483h3.652c1.774 0 2.661 0 3.303-.483.642-.482.857-1.31 1.287-2.967.677-2.604 1.015-3.907.305-4.782a1.701 1.701 0 0 0-.384-.35l-.405-2.248-.036-.129c-.187-.662-.323-1.142-.613-1.517a2.554 2.554 0 0 0-1.124-.827c-.375-.141-.795-.165-1.334-.169a1.385 1.385 0 0 0-1.248-.76H5.921Zm6.64 5.233-.286-1.584c-.223-.79-.305-1.037-.442-1.215a1.375 1.375 0 0 0-.606-.446c-.173-.065-.383-.084-.904-.09a1.385 1.385 0 0 1-1.247.758H5.921c-.55 0-1.025-.31-1.247-.757-.521.005-.73.024-.904.09-.241.09-.451.244-.606.445-.137.178-.218.426-.442 1.215l-.285 1.584c.787-.11 1.836-.11 3.235-.11h3.652c1.4 0 2.448 0 3.235.11ZM4.343 8.475a.58.58 0 0 1 .591.569v3.036a.58.58 0 0 1-.591.569.58.58 0 0 1-.592-.57V9.045a.58.58 0 0 1 .592-.57Zm6.9.569a.58.58 0 0 0-.591-.57.58.58 0 0 0-.592.57v3.036c0 .314.265.569.592.569a.58.58 0 0 0 .591-.57V9.045Zm-3.746-.57a.58.58 0 0 1 .592.57v3.036a.58.58 0 0 1-.592.569.58.58 0 0 1-.591-.57V9.045a.58.58 0 0 1 .591-.57Z"/></svg><svg viewBox="0 0 14 16" id="icon-buy" xmlns="http://www.w3.org/2000/svg"><path fill-rule="evenodd" clip-rule="evenodd" d="M4.36 3.674v-.782C4.36 1.295 5.588 0 7.103 0c1.514 0 2.742 1.295 2.742 2.892v.782c.941.03 1.517.137 1.957.522.61.533.77 1.436 1.09 3.24l.55 3.085c.45 2.538.676 3.807.018 4.643C12.802 16 11.578 16 9.13 16H5.077c-2.45 0-3.674 0-4.332-.836-.658-.836-.433-2.105.019-4.643l.548-3.084c.321-1.805.482-2.708 1.091-3.241.44-.385 1.016-.492 1.957-.522Zm1.097-.782c0-.959.737-1.735 1.646-1.735.908 0 1.645.776 1.645 1.735v.77H5.457v-.77Zm4.182 4.56a.6.6 0 0 1 .086.813L6.8 12.12a.54.54 0 0 1-.398.216.533.533 0 0 1-.419-.168l-1.462-1.542a.6.6 0 0 1 0-.818.529.529 0 0 1 .775 0l1.03 1.085 2.542-3.35a.53.53 0 0 1 .771-.091Z"/></svg><svg viewBox="0 0 17 17" id="icon-contacts" xmlns="http://www.w3.org/2000/svg"><path d="m.975 10.81.44 1.642c.513 1.917.77 2.875 1.352 3.497a3.4 3.4 0 0 0 1.71.987c.83.193 1.788-.064 3.705-.577 1.917-.514 2.875-.77 3.497-1.353.052-.048.102-.098.15-.15a7.769 7.769 0 0 1-.862-.127c-.592-.117-1.295-.306-2.126-.529l-.091-.024-.021-.006c-.905-.242-1.66-.445-2.264-.663-.635-.23-1.212-.512-1.702-.97a4.675 4.675 0 0 1-1.357-2.352c-.152-.653-.109-1.294.01-1.958.114-.637.319-1.4.563-2.314l.455-1.695.016-.06c-1.633.44-2.492.7-3.065 1.237a3.4 3.4 0 0 0-.987 1.71c-.194.829.063 1.787.577 3.704Z"/><path fill-rule="evenodd" clip-rule="evenodd" d="M16.34 7.409 15.9 9.05c-.514 1.917-.771 2.875-1.353 3.497a3.4 3.4 0 0 1-1.71.987c-.082.02-.165.034-.25.044-.778.096-1.727-.158-3.455-.621-1.917-.514-2.875-.77-3.497-1.353a3.4 3.4 0 0 1-.987-1.71c-.193-.829.064-1.787.577-3.704l.44-1.642.208-.77c.386-1.416.646-2.195 1.145-2.728a3.4 3.4 0 0 1 1.71-.987c.829-.193 1.787.064 3.704.577 1.917.514 2.876.77 3.498 1.353a3.4 3.4 0 0 1 .987 1.71c.193.83-.064 1.788-.578 3.705Zm-8.311-.773a.638.638 0 0 1 .78-.451l4.106 1.1a.638.638 0 0 1-.33 1.231l-4.106-1.1a.638.638 0 0 1-.45-.78Zm-.66 2.463a.638.638 0 0 1 .78-.451l2.463.66a.638.638 0 0 1-.33 1.231L7.82 9.88a.638.638 0 0 1-.45-.78Z"/></svg><svg viewBox="0 0 17 16" id="icon-crown" xmlns="http://www.w3.org/2000/svg"><path d="m14.807 9.86.154-1.515c.082-.808.137-1.342.094-1.678h.015c.698 0 1.263-.597 1.263-1.334 0-.736-.565-1.333-1.263-1.333-.697 0-1.263.597-1.263 1.333 0 .333.116.638.307.872-.275.178-.634.556-1.174 1.124-.416.438-.624.657-.856.69a.668.668 0 0 1-.38-.055c-.213-.1-.356-.37-.642-.912L9.555 4.2c-.177-.333-.324-.613-.457-.838a1.79 1.79 0 0 0 .92-1.584C10.018.796 9.262 0 8.332 0S6.65.796 6.65 1.778c0 .691.374 1.29.92 1.584-.133.225-.28.505-.457.838L5.605 7.052c-.286.541-.429.812-.643.912a.668.668 0 0 1-.379.055c-.232-.033-.44-.252-.856-.69-.54-.568-.9-.946-1.174-1.124.191-.234.307-.539.307-.872C2.86 4.597 2.294 4 1.596 4 .9 4 .333 4.597.333 5.333c0 .737.566 1.334 1.263 1.334h.015c-.042.336.012.87.094 1.678l.155 1.516c.086.84.157 1.64.244 2.361h12.458c.088-.72.159-1.52.245-2.361ZM7.417 16H9.25c2.389 0 3.583 0 4.38-.753.347-.328.567-.92.726-1.691H2.311c.16.77.38 1.363.727 1.691C3.835 16 5.03 16 7.418 16Z"/></svg><svg viewBox="0 0 15 16" id="icon-guarantees" xmlns="http://www.w3.org/2000/svg"><path fill-rule="evenodd" clip-rule="evenodd" d="M.627 2.337c-.294.408-.294 1.62-.294 4.046v1.194c0 4.275 3.297 6.35 5.366 7.231.561.24.842.359 1.634.359.793 0 1.074-.12 1.635-.359 2.068-.88 5.365-2.956 5.365-7.231V6.383c0-2.425 0-3.638-.293-4.046-.294-.407-1.463-.798-3.802-1.578L9.793.61C8.573.203 7.964 0 7.333 0c-.63 0-1.24.203-2.46.61L4.429.76C2.09 1.539.921 1.929.627 2.337Zm5.82 2.489-.101.178c-.112.196-.168.294-.256.358-.087.065-.196.089-.413.137l-.198.044c-.765.168-1.148.253-1.239.538-.091.286.17.583.692 1.178l.135.154c.148.169.222.253.255.358.034.104.022.217 0 .443l-.02.205c-.08.793-.119 1.19.12 1.367.238.176.596.015 1.313-.306l.185-.084c.204-.091.305-.137.413-.137.108 0 .21.046.414.137l.185.084c.716.321 1.075.482 1.313.306.238-.177.199-.574.12-1.367l-.02-.205c-.023-.226-.034-.339 0-.443.033-.105.107-.19.255-.358l.135-.154c.522-.595.783-.892.692-1.178-.091-.285-.474-.37-1.24-.538l-.197-.044c-.218-.048-.326-.072-.414-.137-.087-.064-.143-.162-.255-.358l-.102-.178c-.394-.69-.591-1.034-.886-1.034-.294 0-.491.344-.885 1.034Z"/></svg><svg viewBox="0 0 14 19" id="icon-profile" xmlns="http://www.w3.org/2000/svg"><circle cx="6.643" cy="3.795" r="3.795"/><ellipse cx="6.641" cy="14.23" rx="6.641" ry="3.795"/></svg><svg viewBox="0 0 12 15" id="icon-rules" xmlns="http://www.w3.org/2000/svg"><path fill-rule="evenodd" clip-rule="evenodd" d="M1.971.084c-.584.08-.893.226-1.113.45-.22.225-.364.54-.443 1.135-.08.612-.082 1.424-.082 2.588v6.426c.28-.2.597-.351.937-.444.381-.104.825-.104 1.476-.104h9.126V4.257c0-1.164-.002-1.976-.082-2.588-.079-.595-.222-.91-.443-1.135-.22-.224-.53-.37-1.113-.45C9.633 0 8.836 0 7.694 0H4.511c-1.142 0-1.939.001-2.54.084Zm.352 3.362c0-.336.267-.608.597-.608h6.366c.33 0 .596.272.596.608a.603.603 0 0 1-.596.608H2.92a.603.603 0 0 1-.597-.608Zm.597 2.23a.603.603 0 0 0-.597.608c0 .336.267.608.597.608h3.978c.33 0 .597-.272.597-.608a.603.603 0 0 0-.597-.608H2.92Z"/><path d="M2.838 11.351h9.033c-.002.848-.015 1.48-.081 1.98-.079.595-.222.91-.443 1.135-.22.224-.53.37-1.113.45C9.633 15 8.836 15 7.694 15H4.511c-1.142 0-1.939-.001-2.54-.084-.584-.08-.893-.226-1.113-.45-.22-.225-.364-.54-.443-1.135a8.703 8.703 0 0 1-.06-.764 1.804 1.804 0 0 1 1.224-1.153c.209-.057.48-.063 1.26-.063Z"/></svg><svg viewBox="0 0 16 16" id="icon-search" xmlns="http://www.w3.org/2000/svg"><path fill-rule="evenodd" clip-rule="evenodd" d="M7.674 1.977a5.698 5.698 0 1 0 0 11.395 5.698 5.698 0 0 0 0-11.395ZM1 7.674a6.674 6.674 0 1 1 11.727 4.362l2.13 2.13a.488.488 0 0 1-.69.691l-2.131-2.13A6.674 6.674 0 0 1 1 7.675Z" stroke="#fff" stroke-width=".5" stroke-linecap="round"/></svg><svg viewBox="0 0 18 18" id="icon-time" xmlns="http://www.w3.org/2000/svg"><path fill-rule="evenodd" clip-rule="evenodd" d="M2.611 2.602c3.503-3.498 9.198-3.461 12.723.064 3.527 3.526 3.562 9.224.06 12.727-3.504 3.503-9.202 3.468-12.728-.059A9.057 9.057 0 0 1 .084 7.69a.692.692 0 0 1 1.371.188 7.673 7.673 0 0 0 2.19 6.477c2.995 2.995 7.816 3.012 10.77.06 2.952-2.954 2.935-7.775-.06-10.77C11.362.65 6.544.633 3.59 3.58l.69.004a.692.692 0 1 1-.007 1.384l-2.35-.012a.692.692 0 0 1-.688-.688l-.012-2.35a.692.692 0 1 1 1.385-.007l.003.69ZM9 4.615c.382 0 .692.31.692.693v3.405l2.105 2.105a.692.692 0 1 1-.979.98l-2.51-2.511v-3.98c0-.382.31-.692.692-.692Z"/></svg></svg>