<?xml version="1.0" standalone="no"?>
<!DOCTYPE svg PUBLIC "-//W3C//DTD SVG 20010904//EN"
 "http://www.w3.org/TR/2001/REC-SVG-20010904/DTD/svg10.dtd">
<svg version="1.0" xmlns="http://www.w3.org/2000/svg"
 width="32.000000pt" height="32.000000pt" viewBox="0 0 32.000000 32.000000"
 preserveAspectRatio="xMidYMid meet">

<g transform="translate(0.000000,32.000000) scale(0.100000,-0.100000)"
fill="#fff" stroke="#fff">
<path d="M95 306 c-101 -44 -125 -178 -46 -257 65 -65 157 -65 222 0 124 124
-15 327 -176 257z m133 -26 c68 -42 91 -124 52 -188 -57 -94 -183 -94 -240 0
-71 117 71 259 188 188z"/>
<path d="M157 224 c-4 -4 3 -18 15 -31 l21 -23 -56 0 c-31 0 -57 -4 -57 -10 0
-5 26 -10 57 -10 l56 0 -22 -24 c-12 -13 -18 -26 -13 -30 5 -3 24 10 43 30
l33 34 -35 36 c-19 19 -38 31 -42 28z"/>
</g>
</svg>
