<?xml version="1.0" standalone="no"?>
<!DOCTYPE svg PUBLIC "-//W3C//DTD SVG 20010904//EN"
 "http://www.w3.org/TR/2001/REC-SVG-20010904/DTD/svg10.dtd">
<svg version="1.0" xmlns="http://www.w3.org/2000/svg"
 width="32pt" height="32pt" viewBox="0 0 512.000000 512.000000"
 preserveAspectRatio="xMidYMid meet">

<g transform="translate(0.000000,512.000000) scale(0.100000,-0.100000)"
fill="#000000" stroke="none">
<path d="M2270 4875 c-938 -126 -1694 -777 -1954 -1682 -65 -227 -81 -346 -81
-633 0 -287 16 -406 81 -633 266 -925 1058 -1589 2013 -1688 160 -16 463 -7
616 20 1043 183 1828 1022 1936 2070 16 160 7 463 -20 616 -66 376 -213 716
-444 1024 -90 120 -313 345 -435 439 -301 231 -654 385 -1032 452 -161 29
-520 36 -680 15z m481 -325 c485 -49 926 -266 1259 -617 232 -245 398 -540
480 -855 52 -201 64 -294 64 -518 0 -148 -5 -233 -17 -305 -76 -442 -258 -797
-566 -1106 -365 -364 -813 -561 -1331 -585 -552 -26 -1092 186 -1491 585 -177
177 -292 340 -396 558 -320 671 -236 1464 218 2065 80 106 270 296 376 376
406 307 911 451 1404 402z"/>
<path d="M1653 3540 c-67 -30 -103 -107 -88 -187 6 -33 55 -87 383 -416 l377
-377 -372 -373 c-205 -204 -377 -385 -382 -400 -49 -130 86 -265 216 -216 15
5 196 177 401 382 l372 372 373 -372 c204 -205 385 -377 400 -382 130 -49 265
86 216 216 -5 15 -177 196 -382 401 l-372 372 372 373 c205 204 377 385 382
400 36 96 -25 204 -127 223 -84 16 -79 20 -485 -384 l-377 -377 -373 372
c-204 205 -385 377 -400 382 -42 16 -87 13 -134 -9z"/>
</g>
</svg>
