<?xml version="1.0" standalone="no"?>
<!DOCTYPE svg PUBLIC "-//W3C//DTD SVG 20010904//EN"
 "http://www.w3.org/TR/2001/REC-SVG-20010904/DTD/svg10.dtd">
<svg version="1.0" xmlns="http://www.w3.org/2000/svg"
 width="16.000000pt" height="16.000000pt" viewBox="0 0 32.000000 32.000000"
 preserveAspectRatio="xMidYMid meet">

<g transform="translate(0.000000,32.000000) scale(0.100000,-0.100000)"
fill="#ff6347" stroke="#ff6347">
<path d="M25 295 c-28 -27 -30 -46 -13 -96 28 -83 112 -164 196 -189 51 -16
86 -4 104 35 13 29 1 47 -51 78 -30 17 -30 17 -54 -9 l-25 -27 -30 21 c-16 12
-37 33 -47 48 -17 26 -17 27 9 51 28 25 27 29 -11 81 -29 38 -46 40 -78 7z
m74 -27 l21 -33 -26 -21 c-23 -19 -25 -24 -14 -45 18 -35 51 -69 84 -86 27
-14 30 -14 50 11 l21 26 33 -21 c35 -23 37 -30 22 -60 -26 -47 -135 -8 -209
76 -59 67 -80 153 -43 174 28 17 39 13 61 -21z"/>
</g>
</svg>
